<svg version="1.1" id="Layer_1" xmlns="http://www.w3.org/2000/svg" xmlns:xlink="http://www.w3.org/1999/xlink" x="0px" y="0px"
	 width="100%" viewBox="0 0 1200 1200" enable-background="new 0 0 1200 1200" xml:space="preserve">
<path fill="#000000" opacity="1.000000" stroke="none" 
	d="
M786.000000,1201.000000 
	C524.000000,1201.000000 262.500000,1201.000000 1.000000,1201.000000 
	C1.000000,801.000000 1.000000,401.000000 1.000000,1.000000 
	C401.000000,1.000000 801.000000,1.000000 1201.000000,1.000000 
	C1201.000000,401.000000 1201.000000,801.000000 1201.000000,1201.000000 
	C1062.833374,1201.000000 924.666687,1201.000000 786.000000,1201.000000 
M977.945374,600.080627 
	C977.299194,588.718262 977.262573,577.280212 975.864746,566.011047 
	C973.730896,548.807678 971.530884,531.527832 967.800476,514.624451 
	C959.873169,478.703979 946.293213,444.849060 927.557068,412.388489 
	C920.987366,402.293732 914.697083,392.003479 907.795532,382.140900 
	C887.151428,352.639801 862.624207,326.685333 834.017883,304.863953 
	C819.877563,294.077515 804.588135,284.797638 789.430420,274.302795 
	C769.638672,263.334320 749.342773,253.475739 727.945129,245.976624 
	C701.161438,236.589874 673.830200,229.534180 645.497498,227.037491 
	C630.698242,225.733383 615.837646,225.125793 600.078064,224.062149 
	C533.364929,224.572815 470.899109,240.905365 412.373383,274.487274 
	C388.523712,288.473907 365.922821,304.234863 346.111938,323.577606 
	C333.411133,335.978302 320.630219,348.517120 309.622681,362.374207 
	C296.866913,378.432098 286.015503,396.002716 273.953125,413.538788 
	C262.744690,432.923431 253.396149,453.163239 245.921173,474.274323 
	C236.475983,500.949738 229.553070,528.226379 227.023727,556.459900 
	C225.698105,571.257324 225.121429,586.121765 224.087570,601.891479 
	C224.714508,613.296997 224.578079,624.807983 226.136444,636.084778 
	C228.890579,656.014587 231.640869,676.046692 236.261765,695.594055 
	C244.153610,728.978516 257.368866,760.420959 275.133331,790.636963 
	C295.316925,825.178589 320.260437,855.850159 350.153992,882.436584 
	C369.551697,899.688293 390.377472,915.008667 413.662201,928.103760 
	C432.973907,939.275452 453.141693,948.582886 474.177307,956.027405 
	C500.911743,965.488708 528.236572,972.460754 556.539612,974.963379 
	C571.327454,976.270996 586.177429,976.875366 601.926819,977.932983 
	C608.705322,977.623840 615.512024,977.604614 622.256653,976.947632 
	C638.161316,975.398743 654.209412,974.494446 669.890076,971.633484 
	C712.418335,963.874084 752.506287,949.099548 790.578857,926.942444 
	C810.598206,915.158936 829.412659,901.731079 847.034668,886.556335 
	C863.436218,872.432617 879.026672,857.474304 892.024353,840.203613 
	C904.527466,823.589966 915.864807,806.098938 928.072021,788.364929 
	C943.634277,761.806519 955.755066,733.672852 963.602356,703.994690 
	C968.683411,684.778381 971.991638,665.009155 974.796753,645.302979 
	C976.876709,630.691406 976.869568,615.782837 977.945374,600.080627 
z"/>
<path fill="#2853A1" opacity="1.000000" stroke="none" 
	d="
M413.049347,927.740234 
	C390.377472,915.008667 369.551697,899.688293 350.153992,882.436584 
	C320.260437,855.850159 295.316925,825.178589 275.239716,790.026611 
	C281.209900,785.954895 287.055176,782.461609 292.941010,779.038025 
	C309.615417,769.339294 326.306427,759.669128 343.242310,749.986572 
	C343.661255,749.981201 343.828796,749.976929 344.168640,750.268555 
	C353.749237,763.823059 362.730652,777.412109 372.672272,790.257996 
	C385.519440,806.858276 400.703125,821.328735 417.353394,834.070129 
	C428.536896,842.628235 440.470856,850.205566 452.002197,858.553955 
	C450.620728,861.589600 449.306152,864.293030 447.750305,867.234863 
	C440.398682,879.603577 433.210663,891.689270 426.205750,903.880066 
	C421.681488,911.753723 417.425537,919.781555 413.049347,927.740234 
z"/>
<path fill="#63B130" opacity="1.000000" stroke="none" 
	d="
M789.892212,927.232056 
	C752.506287,949.099548 712.418335,963.874084 669.890076,971.633484 
	C654.209412,974.494446 638.161316,975.398743 622.256653,976.947632 
	C615.512024,977.604614 608.705322,977.623840 601.461365,977.409912 
	C600.943909,953.596802 600.891846,930.306702 600.905396,906.569580 
	C601.036804,903.419983 601.102661,900.717346 601.613770,898.011230 
	C606.022034,897.683716 609.985413,897.076050 613.947815,897.083069 
	C634.529724,897.119568 654.520081,893.299011 674.410034,888.441406 
	C696.636414,883.013184 717.705017,874.595581 738.062134,864.337097 
	C741.736755,862.485413 744.767517,859.356079 748.362122,857.033752 
	C750.683411,860.513184 752.738098,863.775391 754.898071,867.380005 
	C762.155518,880.232361 769.232422,892.786194 776.488281,905.235718 
	C780.810913,912.652527 785.414734,919.905457 789.892212,927.232056 
z"/>
<path fill="#A8114B" opacity="1.000000" stroke="none" 
	d="
M274.337372,412.916626 
	C286.015503,396.002716 296.866913,378.432098 309.622681,362.374207 
	C320.630219,348.517120 333.411133,335.978302 346.111938,323.577606 
	C365.922821,304.234863 388.523712,288.473907 412.773743,274.710785 
	C424.496979,294.613464 435.819824,314.292603 447.257629,334.291443 
	C448.994446,337.708862 450.616211,340.806580 451.909271,344.056915 
	C450.394073,344.815735 449.103363,345.277985 448.036835,346.049957 
	C433.911865,356.274750 419.366577,365.988647 405.869995,376.988129 
	C396.291321,384.794556 387.766296,394.014832 379.457367,403.223389 
	C371.571533,411.962982 364.215576,421.245605 357.313904,430.786591 
	C352.294861,437.725006 348.394775,445.472839 343.732513,452.785736 
	C342.979858,452.470032 342.490479,452.228394 341.765259,451.746399 
	C335.380890,447.914124 329.257874,444.277649 323.078766,440.739044 
	C306.844666,431.442169 290.586151,422.187866 274.337372,412.916626 
z"/>
<path fill="#6D318B" opacity="1.000000" stroke="none" 
	d="
M274.145264,413.227722 
	C290.586151,422.187866 306.844666,431.442169 323.078766,440.739044 
	C329.257874,444.277649 335.380890,447.914124 341.743835,452.120911 
	C341.241730,454.580505 340.638458,456.479126 339.790405,458.261230 
	C334.296051,469.806946 328.055695,481.052246 323.348969,492.907806 
	C309.598877,527.542419 303.312958,563.702393 302.981018,600.960571 
	C302.994049,600.995239 303.023895,601.062988 302.554077,601.043335 
	C276.125031,601.001099 250.165771,600.978516 224.206512,600.955933 
	C225.121429,586.121765 225.698105,571.257324 227.023727,556.459900 
	C229.553070,528.226379 236.475983,500.949738 245.921173,474.274323 
	C253.396149,453.163239 262.744690,432.923431 274.145264,413.227722 
z"/>
<path fill="#3A2A88" opacity="1.000000" stroke="none" 
	d="
M224.147034,601.423706 
	C250.165771,600.978516 276.125031,601.001099 302.546875,601.504517 
	C303.326447,608.270386 303.751190,614.552185 303.940399,620.841125 
	C304.522003,640.176575 307.526459,659.162292 313.039856,677.653076 
	C317.156342,691.458984 321.611816,705.231506 327.058472,718.551880 
	C331.490112,729.389954 337.616211,739.535217 342.990906,749.987671 
	C326.306427,759.669128 309.615417,769.339294 292.941010,779.038025 
	C287.055176,782.461609 281.209900,785.954895 275.143890,789.687500 
	C257.368866,760.420959 244.153610,728.978516 236.261765,695.594055 
	C231.640869,676.046692 228.890579,656.014587 226.136444,636.084778 
	C224.578079,624.807983 224.714508,613.296997 224.147034,601.423706 
z"/>
<path fill="#EA5516" opacity="1.000000" stroke="none" 
	d="
M601.004761,224.203613 
	C615.837646,225.125793 630.698242,225.733383 645.497498,227.037491 
	C673.830200,229.534180 701.161438,236.589874 727.945129,245.976624 
	C749.342773,253.475739 769.638672,263.334320 789.384583,274.805359 
	C785.080566,282.596558 780.755676,289.847229 776.579224,297.182465 
	C769.619080,309.406860 762.754028,321.685394 755.608582,334.121857 
	C754.601929,335.236481 753.835632,336.170441 752.885132,336.804871 
	C751.568237,335.557983 750.556702,334.388733 749.285522,333.695465 
	C703.084412,308.496460 653.730347,295.340668 601.018311,294.748322 
	C600.985107,294.325806 600.969482,294.156982 600.964417,293.520355 
	C600.984863,270.102905 600.994812,247.153259 601.004761,224.203613 
z"/>
<path fill="#1391CE" opacity="1.000000" stroke="none" 
	d="
M600.839844,907.016663 
	C600.891846,930.306702 600.943909,953.596802 600.997620,977.342102 
	C586.177429,976.875366 571.327454,976.270996 556.539612,974.963379 
	C528.236572,972.460754 500.911743,965.488708 474.177307,956.027405 
	C453.141693,948.582886 432.973907,939.275452 413.355774,927.921997 
	C417.425537,919.781555 421.681488,911.753723 426.205750,903.880066 
	C433.210663,891.689270 440.398682,879.603577 448.105286,867.303162 
	C453.643402,869.509583 458.625763,871.805664 463.520569,874.275330 
	C506.704468,896.063293 552.461853,907.027954 600.839844,907.016663 
z"/>
<path fill="#E62F1F" opacity="1.000000" stroke="none" 
	d="
M600.541382,224.132874 
	C600.994812,247.153259 600.984863,270.102905 600.540039,293.523560 
	C597.634644,293.727966 595.126282,293.044128 592.700195,293.264893 
	C580.319153,294.391418 567.910156,295.395599 555.601379,297.096863 
	C518.762695,302.188599 484.359467,314.649780 451.690582,332.183899 
	C450.265320,332.948853 448.662659,333.383362 447.142639,333.971802 
	C435.819824,314.292603 424.496979,294.613464 413.091187,274.607239 
	C470.899109,240.905365 533.364929,224.572815 600.541382,224.132874 
z"/>
<path fill="#CCD734" opacity="1.000000" stroke="none" 
	d="
M790.235474,927.087280 
	C785.414734,919.905457 780.810913,912.652527 776.488281,905.235718 
	C769.232422,892.786194 762.155518,880.232361 755.260742,867.307617 
	C762.408936,862.555908 769.458984,858.450623 776.162354,853.841187 
	C801.971680,836.093567 824.589355,814.874146 843.566406,789.961914 
	C851.914673,779.002747 859.315125,767.321472 867.518188,755.968750 
	C868.885071,756.000610 869.879822,756.031677 871.080505,756.333191 
	C872.486511,757.486267 873.618042,758.486023 874.897034,759.233521 
	C887.937927,766.854980 900.968506,774.495544 914.080200,781.993835 
	C918.510315,784.527344 923.163208,786.671326 927.714294,788.993347 
	C915.864807,806.098938 904.527466,823.589966 892.024353,840.203613 
	C879.026672,857.474304 863.436218,872.432617 847.034668,886.556335 
	C829.412659,901.731079 810.598206,915.158936 790.235474,927.087280 
z"/>
<path fill="#F3980C" opacity="1.000000" stroke="none" 
	d="
M755.848938,333.941162 
	C762.754028,321.685394 769.619080,309.406860 776.579224,297.182465 
	C780.755676,289.847229 785.080566,282.596558 789.578674,275.072021 
	C804.588135,284.797638 819.877563,294.077515 834.017883,304.863953 
	C862.624207,326.685333 887.151428,352.639801 907.795532,382.140900 
	C914.697083,392.003479 920.987366,402.293732 927.284180,412.743958 
	C908.002258,424.061737 888.993286,435.023987 869.672485,446.042114 
	C868.569397,446.395050 867.778259,446.692139 866.968018,446.625244 
	C866.168213,444.634552 865.621033,442.836029 864.570618,441.407501 
	C853.765808,426.712830 843.029663,411.963501 831.971313,397.460571 
	C822.053711,384.453644 809.961487,373.493286 797.091858,363.564697 
	C783.697937,353.231628 769.625000,343.778839 755.848938,333.941162 
z"/>
<path fill="#F8BB0C" opacity="1.000000" stroke="none" 
	d="
M869.984314,445.986267 
	C888.993286,435.023987 908.002258,424.061737 927.358887,413.076050 
	C946.293213,444.849060 959.873169,478.703979 967.800476,514.624451 
	C971.530884,531.527832 973.730896,548.807678 975.864746,566.011047 
	C977.262573,577.280212 977.299194,588.718262 977.413330,600.545410 
	C955.594238,601.033875 934.307190,601.057556 912.680908,601.047119 
	C911.889099,600.980225 911.436401,600.947449 910.988647,600.484009 
	C910.664551,592.958191 910.856934,585.792480 909.905762,578.781860 
	C907.390198,560.242188 905.491394,541.513733 901.305359,523.330383 
	C895.017029,496.015411 883.779541,470.412201 869.984314,445.986267 
z"/>
<path fill="#F2E82C" opacity="1.000000" stroke="none" 
	d="
M913.020081,601.081238 
	C934.307190,601.057556 955.594238,601.033875 977.336792,601.008423 
	C976.869568,615.782837 976.876709,630.691406 974.796753,645.302979 
	C971.991638,665.009155 968.683411,684.778381 963.602356,703.994690 
	C955.755066,733.672852 943.634277,761.806519 927.893188,788.679138 
	C923.163208,786.671326 918.510315,784.527344 914.080200,781.993835 
	C900.968506,774.495544 887.937927,766.854980 874.897034,759.233521 
	C873.618042,758.486023 872.486511,757.486267 871.342468,756.092712 
	C898.553406,707.659485 912.125183,656.077881 913.020081,601.081238 
z"/>
<path fill="#382B7E" opacity="1.000000" stroke="none" 
	d="
M343.242310,749.986572 
	C337.616211,739.535217 331.490112,729.389954 327.058472,718.551880 
	C321.611816,705.231506 317.156342,691.458984 313.039856,677.653076 
	C307.526459,659.162292 304.522003,640.176575 303.940399,620.841125 
	C303.751190,614.552185 303.326447,608.270386 303.016663,601.524170 
	C303.023895,601.062988 302.994049,600.995239 303.452637,600.986328 
	C313.994598,600.975647 324.078003,600.973999 334.289429,601.380798 
	C334.724213,620.213501 335.468079,638.682983 340.231934,656.530212 
	C344.554535,672.724487 349.700653,688.757629 355.547028,704.466003 
	C359.457397,714.972717 365.227722,724.787231 369.813904,734.998047 
	C360.973450,740.047302 352.484894,745.010010 343.996338,749.972717 
	C343.828796,749.976929 343.661255,749.981201 343.242310,749.986572 
z"/>
<path fill="#294F94" opacity="1.000000" stroke="none" 
	d="
M344.168640,750.268555 
	C352.484894,745.010010 360.973450,740.047302 370.100525,735.177734 
	C383.156433,756.472778 398.229309,775.585083 415.847931,792.705872 
	C431.776245,808.184143 449.606506,821.135376 468.258606,832.768616 
	C464.293671,838.982849 460.659424,844.995300 456.837219,851.287231 
	C455.122528,853.785095 453.595795,856.003357 452.069092,858.221680 
	C440.470856,850.205566 428.536896,842.628235 417.353394,834.070129 
	C400.703125,821.328735 385.519440,806.858276 372.672272,790.257996 
	C362.730652,777.412109 353.749237,763.823059 344.168640,750.268555 
z"/>
<path fill="#158AC1" opacity="1.000000" stroke="none" 
	d="
M452.002197,858.553955 
	C453.595795,856.003357 455.122528,853.785095 457.197723,851.354919 
	C465.118500,854.572510 472.385376,858.255615 479.887115,861.373718 
	C491.986481,866.402771 503.998688,871.838684 516.478943,875.713928 
	C543.884583,884.223755 572.019348,888.670715 600.880798,888.462891 
	C601.010925,891.947815 601.089722,894.981262 601.168457,898.014771 
	C601.102661,900.717346 601.036804,903.419983 600.905396,906.569580 
	C552.461853,907.027954 506.704468,896.063293 463.520569,874.275330 
	C458.625763,871.805664 453.643402,869.509583 448.346619,867.064758 
	C449.306152,864.293030 450.620728,861.589600 452.002197,858.553955 
z"/>
<path fill="#599F36" opacity="1.000000" stroke="none" 
	d="
M601.613770,898.011230 
	C601.089722,894.981262 601.010925,891.947815 600.942749,887.997314 
	C600.970276,880.772827 600.987366,874.465393 601.461975,868.088135 
	C613.579102,867.025452 625.264771,866.268921 636.892395,864.986023 
	C655.780029,862.902222 674.198669,858.403198 691.815796,851.425720 
	C706.408386,845.646179 720.459961,838.500549 734.853882,832.311279 
	C738.295044,838.782776 741.633545,844.903137 745.114563,851.324524 
	C746.203247,853.355896 747.149414,855.086304 748.095581,856.816650 
	C744.767517,859.356079 741.736755,862.485413 738.062134,864.337097 
	C717.705017,874.595581 696.636414,883.013184 674.410034,888.441406 
	C654.520081,893.299011 634.529724,897.119568 613.947815,897.083069 
	C609.985413,897.076050 606.022034,897.683716 601.613770,898.011230 
z"/>
<path fill="#BFC938" opacity="1.000000" stroke="none" 
	d="
M748.362183,857.033813 
	C747.149414,855.086304 746.203247,853.355896 745.351318,851.082520 
	C756.779358,842.709839 768.592468,835.481201 779.337585,826.913208 
	C796.577393,813.166504 812.793213,798.148560 825.987793,780.344971 
	C834.455322,768.919617 842.014771,756.821350 850.296814,745.163818 
	C852.697266,746.223816 854.782166,747.144653 857.074829,748.334045 
	C860.570374,751.057800 863.858154,753.512939 867.145996,755.968079 
	C859.315125,767.321472 851.914673,779.002747 843.566406,789.961914 
	C824.589355,814.874146 801.971680,836.093567 776.162354,853.841187 
	C769.458984,858.450623 762.408936,862.555908 755.155396,866.965210 
	C752.738098,863.775391 750.683411,860.513184 748.362183,857.033813 
z"/>
<path fill="#643181" opacity="1.000000" stroke="none" 
	d="
M334.161377,600.972290 
	C324.078003,600.973999 313.994598,600.975647 303.439575,600.951660 
	C303.312958,563.702393 309.598877,527.542419 323.348969,492.907806 
	C328.055695,481.052246 334.296051,469.806946 339.790405,458.261230 
	C340.638458,456.479126 341.241730,454.580505 341.979645,452.361267 
	C342.490479,452.228394 342.979858,452.470032 344.040436,452.956787 
	C352.961700,458.227234 361.311737,463.252563 369.511719,468.634521 
	C363.910614,480.142914 357.556885,490.957947 353.240082,502.532654 
	C347.996521,516.592285 343.743958,531.127686 340.424927,545.766174 
	C337.619049,558.141296 336.606720,570.939148 335.099792,583.585571 
	C334.414490,589.336731 334.451843,595.174072 334.161377,600.972290 
z"/>
<path fill="#981846" opacity="1.000000" stroke="none" 
	d="
M369.661804,468.277893 
	C361.311737,463.252563 352.961700,458.227234 344.303711,453.030884 
	C348.394775,445.472839 352.294861,437.725006 357.313904,430.786591 
	C364.215576,421.245605 371.571533,411.962982 379.457367,403.223389 
	C387.766296,394.014832 396.291321,384.794556 405.869995,376.988129 
	C419.366577,365.988647 433.911865,356.274750 448.036835,346.049957 
	C449.103363,345.277985 450.394073,344.815735 452.147949,344.271423 
	C454.154480,346.553467 455.593628,348.773560 457.155273,351.316833 
	C461.032562,357.601593 464.787323,363.563141 468.272919,369.734070 
	C452.848846,380.981934 437.019287,391.217163 422.696625,403.246582 
	C401.007629,421.462769 384.090240,443.945984 369.661804,468.277893 
z"/>
<path fill="#D93220" opacity="1.000000" stroke="none" 
	d="
M457.032776,350.993652 
	C455.593628,348.773560 454.154480,346.553467 452.476654,344.118835 
	C450.616211,340.806580 448.994446,337.708862 447.257629,334.291443 
	C448.662659,333.383362 450.265320,332.948853 451.690582,332.183899 
	C484.359467,314.649780 518.762695,302.188599 555.601379,297.096863 
	C567.910156,295.395599 580.319153,294.391418 592.700195,293.264893 
	C595.126282,293.044128 597.634644,293.727966 600.529541,293.991364 
	C600.969482,294.156982 600.985107,294.325806 601.006165,295.215881 
	C600.999146,301.622314 600.986572,307.307495 600.511353,312.994995 
	C586.162903,314.060883 572.163940,314.346954 558.414551,316.348083 
	C528.781555,320.660950 500.344147,329.182434 473.671173,343.121857 
	C468.237701,345.961365 462.584625,348.380646 457.032776,350.993652 
z"/>
<path fill="#E69014" opacity="1.000000" stroke="none" 
	d="
M755.608582,334.121857 
	C769.625000,343.778839 783.697937,353.231628 797.091858,363.564697 
	C809.961487,373.493286 822.053711,384.453644 831.971313,397.460571 
	C843.029663,411.963501 853.765808,426.712830 864.570618,441.407501 
	C865.621033,442.836029 866.168213,444.634552 866.678589,446.802856 
	C862.243713,450.212219 858.079224,453.079987 853.553101,455.957916 
	C852.463501,455.980377 851.735596,455.992645 850.788574,455.746063 
	C824.812134,411.529633 789.759949,376.876434 746.042542,350.641235 
	C748.441345,345.901703 750.755371,341.503052 753.069397,337.104401 
	C753.835632,336.170441 754.601929,335.236481 755.608582,334.121857 
z"/>
<path fill="#DB521B" opacity="1.000000" stroke="none" 
	d="
M752.885132,336.804871 
	C750.755371,341.503052 748.441345,345.901703 745.830078,350.826904 
	C745.019409,351.902283 744.506042,352.451111 743.805054,352.716370 
	C742.978088,351.913391 742.398926,351.286224 741.690613,350.889923 
	C697.993591,326.440704 650.998779,314.551605 601.019165,313.750305 
	C600.995728,313.329315 600.984863,313.160980 600.973999,312.992676 
	C600.986572,307.307495 600.999146,301.622314 601.023804,295.469574 
	C653.730347,295.340668 703.084412,308.496460 749.285522,333.695465 
	C750.556702,334.388733 751.568237,335.557983 752.885132,336.804871 
z"/>
<path fill="#E8DC32" opacity="1.000000" stroke="none" 
	d="
M867.518188,755.968750 
	C863.858154,753.512939 860.570374,751.057800 857.318604,748.072876 
	C863.512634,734.696533 870.428955,722.151550 875.681091,708.944824 
	C889.429321,674.374634 896.641907,638.428650 896.484131,601.060913 
	C901.627014,601.000916 906.305359,600.957825 910.983704,600.914734 
	C911.436401,600.947449 911.889099,600.980225 912.680908,601.047119 
	C912.125183,656.077881 898.553406,707.659485 871.136475,755.822266 
	C869.879822,756.031677 868.885071,756.000610 867.518188,755.968750 
z"/>
<path fill="#EBB212" opacity="1.000000" stroke="none" 
	d="
M910.988647,600.484009 
	C906.305359,600.957825 901.627014,601.000916 896.105469,601.033691 
	C894.505066,600.989624 893.747925,600.955872 892.993652,600.463684 
	C892.613342,591.215027 892.659302,582.380859 891.766541,573.642578 
	C889.067749,547.227905 883.514282,521.361206 873.555786,496.730347 
	C867.911926,482.770996 860.519653,469.518555 853.914795,455.947723 
	C858.079224,453.079987 862.243713,450.212219 866.697632,447.166809 
	C867.778259,446.692139 868.569397,446.395050 869.672485,446.042114 
	C883.779541,470.412201 895.017029,496.015411 901.305359,523.330383 
	C905.491394,541.513733 907.390198,560.242188 909.905762,578.781860 
	C910.856934,585.792480 910.664551,592.958191 910.988647,600.484009 
z"/>
<path fill="#FFFFFF" opacity="1.000000" stroke="none" 
	d="
M369.511719,468.634521 
	C384.090240,443.945984 401.007629,421.462769 422.696625,403.246582 
	C437.019287,391.217163 452.848846,380.981934 468.596375,369.586548 
	C480.104645,363.999939 490.853424,358.379822 501.972748,353.626526 
	C521.674194,345.204468 542.363770,340.006805 563.557434,337.208679 
	C575.962708,335.570862 588.526123,335.130707 601.436523,334.275146 
	C615.144165,335.597015 628.478760,336.432312 641.713257,338.074493 
	C664.610229,340.915619 686.523621,347.581696 707.619995,356.801331 
	C716.891357,360.853210 725.825867,365.676025 735.094482,370.432434 
	C759.373047,384.857635 781.243225,401.921600 799.287354,423.224762 
	C811.032349,437.091095 821.043274,452.426208 831.901489,467.451813 
	C849.872375,498.912598 860.920471,532.343262 865.321472,567.916565 
	C866.679871,578.896423 867.035828,590.000183 867.745544,601.468384 
	C866.776550,612.076233 865.791565,622.254456 865.074402,632.451538 
	C863.606934,653.316406 858.670959,673.443176 851.051086,692.778870 
	C845.404480,707.107300 838.296021,720.859741 831.565918,735.067383 
	C815.707092,761.720154 796.500488,785.224854 772.687622,804.611755 
	C760.619446,814.436890 747.432434,822.887878 734.751221,831.960083 
	C720.459961,838.500549 706.408386,845.646179 691.815796,851.425720 
	C674.198669,858.403198 655.780029,862.902222 636.892395,864.986023 
	C625.264771,866.268921 613.579102,867.025452 601.001648,868.019775 
	C592.332886,867.657349 584.514160,867.812012 576.846924,866.808716 
	C565.176147,865.281494 553.428101,863.670166 542.046448,860.780518 
	C527.983459,857.210205 514.025879,852.916443 500.467407,847.764893 
	C489.499786,843.597839 479.190552,837.698059 468.589264,832.566833 
	C449.606506,821.135376 431.776245,808.184143 415.847931,792.705872 
	C398.229309,775.585083 383.156433,756.472778 370.452393,735.091187 
	C365.227722,724.787231 359.457397,714.972717 355.547028,704.466003 
	C349.700653,688.757629 344.554535,672.724487 340.231934,656.530212 
	C335.468079,638.682983 334.724213,620.213501 334.289429,601.380798 
	C334.451843,595.174072 334.414490,589.336731 335.099792,583.585571 
	C336.606720,570.939148 337.619049,558.141296 340.424927,545.766174 
	C343.743958,531.127686 347.996521,516.592285 353.240082,502.532654 
	C357.556885,490.957947 363.910614,480.142914 369.511719,468.634521 
z"/>
<path fill="#1782B5" opacity="1.000000" stroke="none" 
	d="
M468.258606,832.768616 
	C479.190552,837.698059 489.499786,843.597839 500.467407,847.764893 
	C514.025879,852.916443 527.983459,857.210205 542.046448,860.780518 
	C553.428101,863.670166 565.176147,865.281494 576.846924,866.808716 
	C584.514160,867.812012 592.332886,867.657349 600.544128,868.089600 
	C600.987366,874.465393 600.970276,880.772827 600.891357,887.545898 
	C572.019348,888.670715 543.884583,884.223755 516.478943,875.713928 
	C503.998688,871.838684 491.986481,866.402771 479.887115,861.373718 
	C472.385376,858.255615 465.118500,854.572510 457.385681,851.075378 
	C460.659424,844.995300 464.293671,838.982849 468.258606,832.768616 
z"/>
<path fill="#B0BB3E" opacity="1.000000" stroke="none" 
	d="
M734.853882,832.311279 
	C747.432434,822.887878 760.619446,814.436890 772.687622,804.611755 
	C796.500488,785.224854 815.707092,761.720154 831.922241,735.154297 
	C837.039917,737.685059 841.528503,740.327393 846.302490,743.112183 
	C847.719055,743.844604 848.850098,744.434631 849.981201,745.024719 
	C842.014771,756.821350 834.455322,768.919617 825.987793,780.344971 
	C812.793213,798.148560 796.577393,813.166504 779.337585,826.913208 
	C768.592468,835.481201 756.779358,842.709839 745.208740,850.781494 
	C741.633545,844.903137 738.295044,838.782776 734.853882,832.311279 
z"/>
<path fill="#DCD037" opacity="1.000000" stroke="none" 
	d="
M850.296814,745.163818 
	C848.850098,744.434631 847.719055,743.844604 846.372559,742.770874 
	C870.717163,698.422302 883.846130,651.573914 883.463806,601.063171 
	C886.941467,601.004333 889.966064,600.963196 892.990723,600.922058 
	C893.747925,600.955872 894.505066,600.989624 895.640869,601.050659 
	C896.641907,638.428650 889.429321,674.374634 875.681091,708.944824 
	C870.428955,722.151550 863.512634,734.696533 857.110901,747.804260 
	C854.782166,747.144653 852.697266,746.223816 850.296814,745.163818 
z"/>
<path fill="#CB3322" opacity="1.000000" stroke="none" 
	d="
M601.018372,334.151764 
	C588.526123,335.130707 575.962708,335.570862 563.557434,337.208679 
	C542.363770,340.006805 521.674194,345.204468 501.972748,353.626526 
	C490.853424,358.379822 480.104645,363.999939 468.865540,369.377167 
	C464.787323,363.563141 461.032562,357.601593 457.155273,351.316833 
	C462.584625,348.380646 468.237701,345.961365 473.671173,343.121857 
	C500.344147,329.182434 528.781555,320.660950 558.414551,316.348083 
	C572.163940,314.346954 586.162903,314.060883 600.511353,312.994995 
	C600.984863,313.160980 600.995728,313.329315 601.008972,314.218323 
	C601.013733,321.343262 601.016052,327.747498 601.018372,334.151764 
z"/>
<path fill="#D5861C" opacity="1.000000" stroke="none" 
	d="
M831.831055,467.103302 
	C821.043274,452.426208 811.032349,437.091095 799.287354,423.224762 
	C781.243225,401.921600 759.373047,384.857635 735.185852,370.083435 
	C738.061584,363.967163 741.027161,358.483551 743.992676,352.999939 
	C744.506042,352.451111 745.019409,351.902283 745.745239,351.167786 
	C789.759949,376.876434 824.812134,411.529633 850.555420,455.981812 
	C848.355591,457.979340 846.169739,459.482300 843.636353,461.055542 
	C839.469543,463.118347 835.650330,465.110840 831.831055,467.103302 
z"/>
<path fill="#DDA819" opacity="1.000000" stroke="none" 
	d="
M843.983887,460.985229 
	C846.169739,459.482300 848.355591,457.979340 850.774536,456.240662 
	C851.735596,455.992645 852.463501,455.980377 853.553101,455.957916 
	C860.519653,469.518555 867.911926,482.770996 873.555786,496.730347 
	C883.514282,521.361206 889.067749,547.227905 891.766541,573.642578 
	C892.659302,582.380859 892.613342,591.215027 892.993652,600.463684 
	C889.966064,600.963196 886.941467,601.004333 883.127747,601.032593 
	C881.890015,600.991821 881.441345,600.963867 880.994751,600.493530 
	C880.334839,590.800842 880.309753,581.450195 878.872437,572.322021 
	C876.246216,555.643494 873.439331,538.939575 869.509583,522.533325 
	C864.291809,500.750061 854.283875,480.762726 843.983887,460.985229 
z"/>
<path fill="#CD4F1F" opacity="1.000000" stroke="none" 
	d="
M743.805054,352.716370 
	C741.027161,358.483551 738.061584,363.967163 735.004700,369.799774 
	C725.825867,365.676025 716.891357,360.853210 707.619995,356.801331 
	C686.523621,347.581696 664.610229,340.915619 641.713257,338.074493 
	C628.478760,336.432312 615.144165,335.597015 601.436523,334.275146 
	C601.016052,327.747498 601.013733,321.343262 601.021606,314.471008 
	C650.998779,314.551605 697.993591,326.440704 741.690613,350.889923 
	C742.398926,351.286224 742.978088,351.913391 743.805054,352.716370 
z"/>
<path fill="#D2C73C" opacity="1.000000" stroke="none" 
	d="
M880.992676,600.935913 
	C881.441345,600.963867 881.890015,600.991821 882.674744,601.050354 
	C883.846130,651.573914 870.717163,698.422302 846.087158,742.628540 
	C841.528503,740.327393 837.039917,737.685059 832.195068,734.955688 
	C838.296021,720.859741 845.404480,707.107300 851.051086,692.778870 
	C858.670959,673.443176 863.606934,653.316406 865.074402,632.451538 
	C865.791565,622.254456 866.776550,612.076233 868.219238,601.459351 
	C872.862976,600.998047 876.927795,600.966980 880.992676,600.935913 
z"/>
<path fill="#D5A21D" opacity="1.000000" stroke="none" 
	d="
M880.994751,600.493530 
	C876.927795,600.966980 872.862976,600.998047 868.324402,601.038208 
	C867.035828,590.000183 866.679871,578.896423 865.321472,567.916565 
	C860.920471,532.343262 849.872375,498.912598 831.901489,467.451813 
	C835.650330,465.110840 839.469543,463.118347 843.636353,461.055542 
	C854.283875,480.762726 864.291809,500.750061 869.509583,522.533325 
	C873.439331,538.939575 876.246216,555.643494 878.872437,572.322021 
	C880.309753,581.450195 880.334839,590.800842 880.994751,600.493530 
z"/>
</svg>